<?xml version="1.0" encoding="UTF-8" standalone="no"?>
<!DOCTYPE svg PUBLIC "-//W3C//DTD SVG 1.1//EN" "http://www.w3.org/Graphics/SVG/1.1/DTD/svg11.dtd">
<!-- Generated by Microsoft Visio, SVG Export app.map.svg Page-1 -->
<svg xmlns="http://www.w3.org/2000/svg" xmlns:xlink="http://www.w3.org/1999/xlink" xmlns:ev="http://www.w3.org/2001/xml-events"
		xmlns:v="http://schemas.microsoft.com/visio/2003/SVGExtensions/" width="5.35433in" height="8.01492in"
		viewBox="0 0 385.512 577.074" xml:space="preserve" color-interpolation-filters="sRGB" class="st9">
	<v:documentProperties v:langID="1033" v:viewMarkup="false">
		<v:userDefs>
			<v:ud v:nameU="msvConvertTheme"/>
		</v:userDefs>
	</v:documentProperties>

	<style type="text/css">
	<![CDATA[
		.st1 {fill:#00a9ce;stroke:#ffffff;stroke-linecap:round;stroke-linejoin:round;stroke-width:0.75}
		.st2 {fill:#ffffff;font-family:Arial;font-size:0.666664em}
		.st3 {font-size:1em}
		.st4 {fill:#00a9ce;stroke:none;stroke-linecap:round;stroke-linejoin:round;stroke-width:0.75}
		.st5 {stroke:none;stroke-linecap:round;stroke-linejoin:round;stroke-width:0.75}
		.st6 {fill:#000000;font-family:Calibri;font-size:0.667717em}
		.st7 {stroke:#00a9ce;stroke-dasharray:1.75,1.25;stroke-linecap:round;stroke-linejoin:round;stroke-width:0.25}
		.st8 {fill:none;stroke:#00a9ce;stroke-linecap:round;stroke-linejoin:round;stroke-width:0.25}
		.st9 {fill:none;fill-rule:evenodd;font-size:12px;overflow:visible;stroke-linecap:square;stroke-miterlimit:3}
	]]>
	</style>

	<g v:mID="0" v:index="1" v:groupContext="foregroundPage">
		<title>Page-1</title>
		<v:pageProperties v:drawingScale="1" v:pageScale="1" v:drawingUnits="19" v:shadowOffsetX="8.50394"
				v:shadowOffsetY="-8.50394"/>
		<g id="shape72-1" v:mID="72" v:groupContext="shape" transform="translate(226.772,-480.696)">
			<title>Sheet.72</title>
			<desc>Reserved (TPIU)</desc>
			<v:textBlock v:margins="rect(4,4,4,4)"/>
			<v:textRect cx="53.8583" cy="571.405" width="107.72" height="11.3386"/>
			<path d="M0 565.74 L0 577.07 L107.72 577.07 L107.72 565.74 L0 565.74 L0 565.74 Z" class="st1"/>
			<text x="23.85" y="573.81" class="st2" v:langID="1044"><v:paragraph v:horizAlign="1"/><v:tabList/>Reserved (TPIU)</text>		</g>
		<g id="shape71-4" v:mID="71" v:groupContext="shape" transform="translate(226.772,-531.72)">
			<title>Sheet.71</title>
			<desc>MCU ROM table</desc>
			<v:textBlock v:margins="rect(4,4,4,4)"/>
			<v:textRect cx="53.8583" cy="571.405" width="107.72" height="11.3386"/>
			<path d="M0 565.74 L0 577.07 L107.72 577.07 L107.72 565.74 L0 565.74 L0 565.74 Z" class="st1"/>
			<text x="24.52" y="573.81" class="st2" v:langID="1044"><v:paragraph v:horizAlign="1"/><v:tabList/>MCU ROM<tspan
						class="st3" v:langID="1033"> </tspan>t<tspan class="st3" v:langID="1033">able</tspan></text>		</g>
		<g id="shape68-9" v:mID="68" v:groupContext="shape" transform="translate(226.772,-543.058)">
			<title>Sheet.68</title>
			<desc>ROM table</desc>
			<v:textBlock v:margins="rect(4,4,4,4)"/>
			<v:textRect cx="53.8583" cy="571.405" width="107.72" height="11.3386"/>
			<path d="M0 565.74 L0 577.07 L107.72 577.07 L107.72 565.74 L0 565.74 L0 565.74 Z" class="st1"/>
			<text x="34.74" y="573.81" class="st2" v:langID="1033"><v:paragraph v:horizAlign="1"/><v:tabList/>ROM <tspan
						class="st3" v:langID="1044">t</tspan>able</text>		</g>
		<g id="shape2-13" v:mID="2" v:groupContext="shape" transform="translate(226.772,-21.4836)">
			<title>Sheet.2</title>
			<desc>FLASH</desc>
			<v:textBlock v:margins="rect(4,4,4,4)"/>
			<v:textRect cx="53.8583" cy="568.57" width="107.72" height="17.0079"/>
			<path d="M0 560.07 L0 577.07 L107.72 577.07 L107.72 560.07 L0 560.07 L0 560.07 Z" class="st4"/>
			<text x="40.97" y="570.97" class="st2" v:langID="1044"><v:paragraph v:horizAlign="1"/><v:tabList/>FLASH</text>		</g>
		<g id="shape3-16" v:mID="3" v:groupContext="shape" transform="translate(334.488,-146.208)">
			<title>Sheet.3</title>
			<desc>0x2000 0000</desc>
			<v:textBlock v:margins="rect(0,0,0,0)" v:tabSpace="42.5197" v:verticalAlign="2"/>
			<v:textRect cx="25.5118" cy="571.405" width="51.03" height="11.3386"/>
			<path d="M51.02 565.74 L0 565.74 L0 577.07 L51.02 577.07 L51.02 565.74" class="st5"/>
			<text x="4.6" y="574.67" class="st6" v:langID="1044"><v:paragraph v:horizAlign="1"/><v:tabList/>0<tspan class="st3"
						v:langID="1033">x</tspan>2000 0000</text>		</g>
		<g id="shape4-21" v:mID="4" v:groupContext="shape" transform="translate(334.488,-21.4836)">
			<title>Sheet.4</title>
			<desc>0x0000 0000</desc>
			<v:textBlock v:margins="rect(0,0,0,0)" v:tabSpace="42.5197" v:verticalAlign="2"/>
			<v:textRect cx="25.5118" cy="571.405" width="51.03" height="11.3386"/>
			<path d="M51.02 565.74 L0 565.74 L0 577.07 L51.02 577.07 L51.02 565.74" class="st5"/>
			<text x="4.6" y="574.67" class="st6" v:langID="1044"><v:paragraph v:horizAlign="1"/><v:tabList/>0<tspan class="st3"
						v:langID="1033">x</tspan>0000 0000</text>		</g>
		<g id="shape5-26" v:mID="5" v:groupContext="shape" transform="translate(334.488,-55.4994)">
			<title>Sheet.5</title>
			<desc>0x00FF 0000</desc>
			<v:textBlock v:margins="rect(0,0,0,0)" v:tabSpace="42.5197" v:verticalAlign="2"/>
			<v:textRect cx="25.5118" cy="571.405" width="51.03" height="11.3386"/>
			<path d="M51.02 565.74 L0 565.74 L0 577.07 L51.02 577.07 L51.02 565.74" class="st5"/>
			<text x="4.98" y="574.67" class="st6" v:langID="1044"><v:paragraph v:horizAlign="1"/><v:tabList/>0<tspan class="st3"
						v:langID="1033">x</tspan>00FF 0000</text>		</g>
		<g id="shape6-31" v:mID="6" v:groupContext="shape" transform="translate(51.0236,-475.027)">
			<title>Sheet.6</title>
			<desc>Private peripheral bus</desc>
			<v:textBlock v:margins="rect(4,4,4,4)"/>
			<v:textRect cx="53.8583" cy="537.389" width="107.72" height="79.3701"/>
			<path d="M0 497.7 L0 577.07 L107.72 577.07 L107.72 497.7 L0 497.7 L0 497.7 Z" class="st1"/>
			<text x="14.95" y="539.79" class="st2" v:langID="1033"><v:paragraph v:horizAlign="1"/><v:tabList/>Private <tspan
						class="st3" v:langID="1044">p</tspan>eripheral <tspan class="st3" v:langID="1044">b</tspan>us</text>		</g>
		<g id="shape7-36" v:mID="7" v:groupContext="shape" transform="translate(226.772,-146.208)">
			<title>Sheet.7</title>
			<desc>SRAM</desc>
			<v:textBlock v:margins="rect(4,4,4,4)"/>
			<v:textRect cx="53.8583" cy="568.57" width="107.72" height="17.0079"/>
			<path d="M0 560.07 L0 577.07 L107.72 577.07 L107.72 560.07 L0 560.07 L0 560.07 Z" class="st4"/>
			<text x="42.3" y="570.97" class="st2" v:langID="1044"><v:paragraph v:horizAlign="1"/><v:tabList/>SRAM</text>		</g>
		<g id="shape8-39" v:mID="8" v:groupContext="shape" transform="translate(51.0236,-441.011)">
			<title>Sheet.8</title>
			<desc>Device</desc>
			<v:textBlock v:margins="rect(4,4,4,4)"/>
			<v:textRect cx="53.8583" cy="560.066" width="107.72" height="34.0157"/>
			<path d="M0 543.06 L0 577.07 L107.72 577.07 L107.72 543.06 L0 543.06 L0 543.06 Z" class="st1"/>
			<text x="41.63" y="562.47" class="st2" v:langID="1044"><v:paragraph v:horizAlign="1"/><v:tabList/>Device</text>		</g>
		<g id="shape9-42" v:mID="9" v:groupContext="shape" transform="translate(6.39488E-14,-21.4836)">
			<title>Sheet.9</title>
			<desc>0x0000 0000</desc>
			<v:textBlock v:margins="rect(0,0,0,0)" v:tabSpace="42.5197"/>
			<v:textRect cx="25.5118" cy="571.405" width="51.03" height="11.3386"/>
			<path d="M51.02 565.74 L0 565.74 L0 577.07 L51.02 577.07 L51.02 565.74" class="st5"/>
			<text x="4.6" y="573.81" class="st6" v:langID="1044"><v:paragraph v:horizAlign="1"/><v:tabList/>0<tspan class="st3"
						v:langID="1033">x</tspan>0000 0000</text>		</g>
		<g id="shape10-47" v:mID="10" v:groupContext="shape" transform="translate(6.39488E-14,-140.539)">
			<title>Sheet.10</title>
			<desc>0x2000 0000</desc>
			<v:textBlock v:margins="rect(0,0,0,0)" v:tabSpace="42.5197"/>
			<v:textRect cx="25.5118" cy="571.405" width="51.03" height="11.3386"/>
			<path d="M51.02 565.74 L0 565.74 L0 577.07 L51.02 577.07 L51.02 565.74" class="st5"/>
			<text x="4.6" y="573.81" class="st6" v:langID="1044"><v:paragraph v:horizAlign="1"/><v:tabList/>0<tspan class="st3"
						v:langID="1033">x</tspan>2000 0000</text>		</g>
		<g id="shape11-52" v:mID="11" v:groupContext="shape" transform="translate(6.39488E-14,-214.24)">
			<title>Sheet.11</title>
			<desc>0x4000 0000</desc>
			<v:textBlock v:margins="rect(0,0,0,0)" v:tabSpace="42.5197"/>
			<v:textRect cx="25.5118" cy="571.405" width="51.03" height="11.3386"/>
			<path d="M51.02 565.74 L0 565.74 L0 577.07 L51.02 577.07 L51.02 565.74" class="st5"/>
			<text x="4.6" y="573.81" class="st6" v:langID="1044"><v:paragraph v:horizAlign="1"/><v:tabList/>0<tspan class="st3"
						v:langID="1033">x</tspan>4000 0000</text>		</g>
		<g id="shape12-57" v:mID="12" v:groupContext="shape" transform="translate(6.39488E-14,-333.295)">
			<title>Sheet.12</title>
			<desc>0x6000 0000</desc>
			<v:textBlock v:margins="rect(0,0,0,0)" v:tabSpace="42.5197"/>
			<v:textRect cx="25.5118" cy="571.405" width="51.03" height="11.3386"/>
			<path d="M51.02 565.74 L0 565.74 L0 577.07 L51.02 577.07 L51.02 565.74" class="st5"/>
			<text x="4.6" y="573.81" class="st6" v:langID="1044"><v:paragraph v:horizAlign="1"/><v:tabList/>0<tspan class="st3"
						v:langID="1033">x</tspan>6000 0000</text>		</g>
		<g id="shape13-62" v:mID="13" v:groupContext="shape" transform="translate(6.39488E-14,-367.31)">
			<title>Sheet.13</title>
			<desc>0x8000 0000</desc>
			<v:textBlock v:margins="rect(0,0,0,0)" v:tabSpace="42.5197"/>
			<v:textRect cx="25.5118" cy="571.405" width="51.03" height="11.3386"/>
			<path d="M51.02 565.74 L0 565.74 L0 577.07 L51.02 577.07 L51.02 565.74" class="st5"/>
			<text x="4.6" y="573.81" class="st6" v:langID="1044"><v:paragraph v:horizAlign="1"/><v:tabList/>0<tspan class="st3"
						v:langID="1033">x</tspan>8000 0000</text>		</g>
		<g id="shape14-67" v:mID="14" v:groupContext="shape" transform="translate(6.39488E-14,-401.326)">
			<title>Sheet.14</title>
			<desc>0xA000 0000</desc>
			<v:textBlock v:margins="rect(0,0,0,0)" v:tabSpace="42.5197"/>
			<v:textRect cx="25.5118" cy="571.405" width="51.03" height="11.3386"/>
			<path d="M51.02 565.74 L0 565.74 L0 577.07 L51.02 577.07 L51.02 565.74" class="st5"/>
			<text x="4.31" y="573.81" class="st6" v:langID="1044"><v:paragraph v:horizAlign="1"/><v:tabList/>0<tspan class="st3"
						v:langID="1033">x</tspan>A000 0000</text>		</g>
		<g id="shape15-72" v:mID="15" v:groupContext="shape" transform="translate(0.992126,-435.342)">
			<title>Sheet.15</title>
			<desc>0xC000 0000</desc>
			<v:textBlock v:margins="rect(0,0,0,0)" v:tabSpace="42.5197"/>
			<v:textRect cx="25.0157" cy="571.405" width="50.04" height="11.3386"/>
			<path d="M50.03 565.74 L0 565.74 L0 577.07 L50.03 577.07 L50.03 565.74" class="st5"/>
			<text x="3.99" y="573.81" class="st6" v:langID="1044"><v:paragraph v:horizAlign="1"/><v:tabList/>0<tspan class="st3"
						v:langID="1033">x</tspan>C000 0000</text>		</g>
		<g id="shape16-77" v:mID="16" v:groupContext="shape" transform="translate(226.772,-463.688)">
			<title>Sheet.16</title>
			<desc>SCS</desc>
			<v:textBlock v:margins="rect(4,4,4,4)"/>
			<v:textRect cx="53.8583" cy="571.405" width="107.72" height="11.3386"/>
			<path d="M0 565.74 L0 577.07 L107.72 577.07 L107.72 565.74 L0 565.74 L0 565.74 Z" class="st1"/>
			<text x="45.63" y="573.81" class="st2" v:langID="1033"><v:paragraph v:horizAlign="1"/><v:tabList/>SCS</text>		</g>
		<g id="shape17-80" v:mID="17" v:groupContext="shape" transform="translate(334.488,-543.058)">
			<title>Sheet.17</title>
			<desc>0xE00F F000</desc>
			<v:textBlock v:margins="rect(0,0,0,0)" v:tabSpace="42.5197"/>
			<v:textRect cx="25.5118" cy="571.405" width="51.03" height="11.3386"/>
			<path d="M51.02 565.74 L0 565.74 L0 577.07 L51.02 577.07 L51.02 565.74" class="st5"/>
			<text x="5.05" y="573.81" class="st6" v:langID="1044"><v:paragraph v:horizAlign="1"/><v:tabList/>0<tspan class="st3"
						v:langID="1033">x</tspan>E00<tspan class="st3" v:langID="1033">F</tspan> <tspan class="st3" v:langID="1033">F</tspan>000</text>		</g>
		<g id="shape18-87" v:mID="18" v:groupContext="shape" transform="translate(158.74,-21.4836)">
			<title>Sheet.18</title>
			<path d="M0 577.07 L68.03 577.07" class="st7"/>
		</g>
		<g id="shape19-90" v:mID="19" v:groupContext="shape" transform="translate(0,-469.358)">
			<title>Sheet.19</title>
			<desc>0xE000 0000</desc>
			<v:textBlock v:margins="rect(0,0,0,0)" v:tabSpace="42.5197"/>
			<v:textRect cx="25.5118" cy="571.405" width="51.03" height="11.3386"/>
			<path d="M51.02 565.74 L0 565.74 L0 577.07 L51.02 577.07 L51.02 565.74" class="st5"/>
			<text x="4.67" y="573.81" class="st6" v:langID="1044"><v:paragraph v:horizAlign="1"/><v:tabList/>0<tspan class="st3"
						v:langID="1033">x</tspan>E000 0000</text>		</g>
		<g id="shape20-95" v:mID="20" v:groupContext="shape" transform="translate(51.0236,-554.397)">
			<title>Sheet.20</title>
			<desc>System address map</desc>
			<v:textBlock v:margins="rect(0,0,0,0)" v:tabSpace="42.5197"/>
			<v:textRect cx="53.8583" cy="565.736" width="107.72" height="22.6772"/>
			<path d="M107.72 554.4 L0 554.4 L0 577.07 L107.72 577.07 L107.72 554.4" class="st5"/>
			<text x="20.41" y="568.14" class="st6" v:langID="1044"><v:paragraph v:horizAlign="1"/><v:tabList/>System address map</text>		</g>
		<g id="shape21-99" v:mID="21" v:groupContext="shape" transform="translate(226.772,-554.397)">
			<title>Sheet.21</title>
			<desc>Address map</desc>
			<v:textBlock v:margins="rect(0,0,0,0)" v:tabSpace="42.5197"/>
			<v:textRect cx="53.8583" cy="565.736" width="107.72" height="22.6772"/>
			<path d="M107.72 554.4 L0 554.4 L0 577.07 L107.72 577.07 L107.72 554.4" class="st5"/>
			<text x="32.68" y="568.14" class="st6" v:langID="1044"><v:paragraph v:horizAlign="1"/><v:tabList/>Address map</text>		</g>
		<g id="shape22-103" v:mID="22" v:groupContext="shape" transform="translate(226.772,-55.4994)">
			<title>Sheet.22</title>
			<desc>FICR</desc>
			<v:textBlock v:margins="rect(4,4,4,4)"/>
			<v:textRect cx="53.8583" cy="571.405" width="107.72" height="11.3386"/>
			<path d="M0 565.74 L0 577.07 L107.72 577.07 L107.72 565.74 L0 565.74 L0 565.74 Z" class="st4"/>
			<text x="44.53" y="573.81" class="st2" v:langID="1044"><v:paragraph v:horizAlign="1"/><v:tabList/>FICR</text>		</g>
		<g id="shape23-106" v:mID="23" v:groupContext="shape" transform="translate(72.6846,-67.2552) rotate(-8.47656)">
			<title>Sheet.23</title>
			<path d="M0 577.07 L69.79 577.07" class="st7"/>
		</g>
		<g id="shape24-109" v:mID="24" v:groupContext="shape" transform="translate(119.229,-157.311) rotate(-3.82723)">
			<title>Sheet.24</title>
			<path d="M0 577.07 L69.18 577.07" class="st7"/>
		</g>
		<g id="shape25-112" v:mID="25" v:groupContext="shape" transform="translate(334.488,-219.909)">
			<title>Sheet.25</title>
			<desc>0x4000 0000</desc>
			<v:textBlock v:margins="rect(0,0,0,0)" v:tabSpace="42.5197" v:verticalAlign="2"/>
			<v:textRect cx="25.5118" cy="571.405" width="51.03" height="11.3386"/>
			<path d="M51.02 565.74 L0 565.74 L0 577.07 L51.02 577.07 L51.02 565.74" class="st5"/>
			<text x="4.6" y="574.67" class="st6" v:langID="1044"><v:paragraph v:horizAlign="1"/><v:tabList/>0<tspan class="st3"
						v:langID="1033">x</tspan>4000 0000</text>		</g>
		<g id="shape26-117" v:mID="26" v:groupContext="shape" transform="translate(226.772,-219.909)">
			<title>Sheet.26</title>
			<desc>APB peripherals</desc>
			<v:textBlock v:margins="rect(4,4,4,4)"/>
			<v:textRect cx="53.8583" cy="562.901" width="107.72" height="28.3465"/>
			<path d="M0 548.73 L0 577.07 L107.72 577.07 L107.72 548.73 L0 548.73 L0 548.73 Z" class="st4"/>
			<text x="24.95" y="565.3" class="st2" v:langID="1044"><v:paragraph v:horizAlign="1"/><v:tabList/>APB peripherals</text>		</g>
		<g id="shape27-120" v:mID="27" v:groupContext="shape" transform="translate(226.772,-253.925)">
			<title>Sheet.27</title>
			<desc>AHB peripherals</desc>
			<v:textBlock v:margins="rect(4,4,4,4)"/>
			<v:textRect cx="53.8583" cy="571.21" width="107.72" height="11.7283"/>
			<path d="M0 565.35 L0 577.07 L107.72 577.07 L107.72 565.35 L0 565.35 L0 565.35 Z" class="st4"/>
			<text x="24.73" y="573.61" class="st2" v:langID="1044"><v:paragraph v:horizAlign="1"/><v:tabList/>AHB peripherals</text>		</g>
		<g id="shape28-123" v:mID="28" v:groupContext="shape" transform="translate(334.488,-253.925)">
			<title>Sheet.28</title>
			<desc>0x4080 0000</desc>
			<v:textBlock v:margins="rect(0,0,0,0)" v:tabSpace="42.5197" v:verticalAlign="2"/>
			<v:textRect cx="25.5118" cy="571.405" width="51.03" height="11.3386"/>
			<path d="M51.02 565.74 L0 565.74 L0 577.07 L51.02 577.07 L51.02 565.74" class="st5"/>
			<text x="4.6" y="574.67" class="st6" v:langID="1044"><v:paragraph v:horizAlign="1"/><v:tabList/>0<tspan class="st3"
						v:langID="1033">x</tspan>4080 0000</text>		</g>
		<g id="shape29-128" v:mID="29" v:groupContext="shape" transform="translate(226.772,-72.5073)">
			<title>Sheet.29</title>
			<desc>UICR</desc>
			<v:textBlock v:margins="rect(4,4,4,4)"/>
			<v:textRect cx="53.8583" cy="571.405" width="107.72" height="11.3386"/>
			<path d="M0 565.74 L0 577.07 L107.72 577.07 L107.72 565.74 L0 565.74 L0 565.74 Z" class="st4"/>
			<text x="44.08" y="573.81" class="st2" v:langID="1044"><v:paragraph v:horizAlign="1"/><v:tabList/>UICR</text>		</g>
		<g id="shape30-131" v:mID="30" v:groupContext="shape" transform="translate(334.488,-72.5073)">
			<title>Sheet.30</title>
			<desc>0x00FF 8000</desc>
			<v:textBlock v:margins="rect(0,0,0,0)" v:tabSpace="42.5197" v:verticalAlign="2"/>
			<v:textRect cx="25.5118" cy="571.405" width="51.03" height="11.3386"/>
			<path d="M51.02 565.74 L0 565.74 L0 577.07 L51.02 577.07 L51.02 565.74" class="st5"/>
			<text x="4.98" y="574.67" class="st6" v:langID="1044"><v:paragraph v:horizAlign="1"/><v:tabList/>0<tspan class="st3"
						v:langID="1033">x</tspan>00FF 8000</text>		</g>
		<g id="shape31-136" v:mID="31" v:groupContext="shape" transform="translate(51.0236,-406.995)">
			<title>Sheet.31</title>
			<desc>Device</desc>
			<v:textBlock v:margins="rect(4,4,4,4)"/>
			<v:textRect cx="53.8583" cy="560.066" width="107.72" height="34.0157"/>
			<path d="M0 543.06 L0 577.07 L107.72 577.07 L107.72 543.06 L0 543.06 L0 543.06 Z" class="st1"/>
			<text x="41.63" y="562.47" class="st2" v:langID="1044"><v:paragraph v:horizAlign="1"/><v:tabList/>Device</text>		</g>
		<g id="shape32-139" v:mID="32" v:groupContext="shape" transform="translate(51.0236,-372.98)">
			<title>Sheet.32</title>
			<desc>RAM</desc>
			<v:textBlock v:margins="rect(4,4,4,4)"/>
			<v:textRect cx="53.8583" cy="560.066" width="107.72" height="34.0157"/>
			<path d="M0 543.06 L0 577.07 L107.72 577.07 L107.72 543.06 L0 543.06 L0 543.06 Z" class="st1"/>
			<text x="44.97" y="562.47" class="st2" v:langID="1044"><v:paragraph v:horizAlign="1"/><v:tabList/>RAM</text>		</g>
		<g id="shape33-142" v:mID="33" v:groupContext="shape" transform="translate(51.0236,-338.964)">
			<title>Sheet.33</title>
			<desc>RAM</desc>
			<v:textBlock v:margins="rect(4,4,4,4)"/>
			<v:textRect cx="53.8583" cy="560.066" width="107.72" height="34.0157"/>
			<path d="M0 543.06 L0 577.07 L107.72 577.07 L107.72 543.06 L0 543.06 L0 543.06 Z" class="st1"/>
			<text x="44.97" y="562.47" class="st2" v:langID="1044"><v:paragraph v:horizAlign="1"/><v:tabList/>RAM</text>		</g>
		<g id="shape34-145" v:mID="34" v:groupContext="shape" transform="translate(51.0236,-219.909)">
			<title>Sheet.34</title>
			<desc>Non-secure peripheral</desc>
			<v:textBlock v:margins="rect(4,4,4,4)"/>
			<v:textRect cx="53.8583" cy="534.554" width="107.72" height="85.0394"/>
			<path d="M0 492.03 L0 577.07 L107.72 577.07 L107.72 492.03 L0 492.03 L0 492.03 Z" class="st1"/>
			<text x="14.28" y="536.95" class="st2" v:langID="1033"><v:paragraph v:horizAlign="1"/><v:tabList/>Non-<tspan
						class="st3" v:langID="1044">s</tspan>ecure <tspan class="st3" v:langID="1044">peripheral</tspan></text>		</g>
		<g id="shape35-150" v:mID="35" v:groupContext="shape" transform="translate(51.0236,-146.208)">
			<title>Sheet.35</title>
			<desc>SRAM</desc>
			<v:textBlock v:margins="rect(4,4,4,4)"/>
			<v:textRect cx="53.8583" cy="540.224" width="107.72" height="73.7008"/>
			<path d="M0 503.37 L0 577.07 L107.72 577.07 L107.72 503.37 L0 503.37 L0 503.37 Z" class="st1"/>
			<text x="42.3" y="542.62" class="st2" v:langID="1044"><v:paragraph v:horizAlign="1"/><v:tabList/>SRAM</text>		</g>
		<g id="shape36-153" v:mID="36" v:groupContext="shape" transform="translate(51.0236,-21.4836)">
			<title>Sheet.36</title>
			<desc>Code</desc>
			<v:textBlock v:margins="rect(4,4,4,4)"/>
			<v:textRect cx="53.8583" cy="514.712" width="107.72" height="124.724"/>
			<path d="M0 452.35 L0 577.07 L107.72 577.07 L107.72 452.35 L0 452.35 L0 452.35 Z" class="st1"/>
			<text x="44.3" y="517.11" class="st2" v:langID="1044"><v:paragraph v:horizAlign="1"/><v:tabList/>Code</text>		</g>
		<g id="shape37-156" v:mID="37" v:groupContext="shape" transform="translate(-17.6067,-216.35) rotate(-17.6901)">
			<title>Sheet.37</title>
			<path d="M0 577.07 L72.45 577.07" class="st7"/>
		</g>
		<g id="shape38-159" v:mID="38" v:groupContext="shape" transform="translate(158.74,-219.909)">
			<title>Sheet.38</title>
			<path d="M0 577.07 L68.22 577.07" class="st7"/>
		</g>
		<g id="shape39-162" v:mID="39" v:groupContext="shape" transform="translate(158.74,-146.208)">
			<title>Sheet.39</title>
			<path d="M0 577.07 L68.06 577.07" class="st7"/>
		</g>
		<g id="shape40-165" v:mID="40" v:groupContext="shape" transform="translate(51.0236,-304.948)">
			<title>Sheet.40</title>
			<desc>Secure peripheral</desc>
			<v:textBlock v:margins="rect(4,4,4,4)"/>
			<v:textRect cx="53.8583" cy="560.066" width="107.72" height="34.0157"/>
			<path d="M0 543.06 L0 577.07 L107.72 577.07 L107.72 543.06 L0 543.06 L0 543.06 Z" class="st1"/>
			<text x="22.28" y="562.47" class="st2" v:langID="1033"><v:paragraph v:horizAlign="1"/><v:tabList/>Secure <tspan
						class="st3" v:langID="1044">peripheral</tspan></text>		</g>
		<g id="shape41-169" v:mID="41" v:groupContext="shape" transform="translate(6.39488E-14,-299.279)">
			<title>Sheet.41</title>
			<desc>0x5000 0000</desc>
			<v:textBlock v:margins="rect(0,0,0,0)" v:tabSpace="42.5197"/>
			<v:textRect cx="25.5118" cy="571.405" width="51.03" height="11.3386"/>
			<path d="M51.02 565.74 L0 565.74 L0 577.07 L51.02 577.07 L51.02 565.74" class="st5"/>
			<text x="4.6" y="573.81" class="st6" v:langID="1044"><v:paragraph v:horizAlign="1"/><v:tabList/>0<tspan class="st3"
						v:langID="1033">x5</tspan>000 0000</text>		</g>
		<g id="shape42-174" v:mID="42" v:groupContext="shape" transform="translate(226.772,-304.948)">
			<title>Sheet.42</title>
			<desc>APB peripherals</desc>
			<v:textBlock v:margins="rect(4,4,4,4)"/>
			<v:textRect cx="53.8583" cy="562.901" width="107.72" height="28.3465"/>
			<path d="M0 548.73 L0 577.07 L107.72 577.07 L107.72 548.73 L0 548.73 L0 548.73 Z" class="st4"/>
			<text x="24.95" y="565.3" class="st2" v:langID="1044"><v:paragraph v:horizAlign="1"/><v:tabList/>APB peripherals</text>		</g>
		<g id="shape43-177" v:mID="43" v:groupContext="shape" transform="translate(226.772,-338.964)">
			<title>Sheet.43</title>
			<desc>AHB peripherals</desc>
			<v:textBlock v:margins="rect(4,4,4,4)"/>
			<v:textRect cx="53.8583" cy="571.405" width="107.72" height="11.3386"/>
			<path d="M0 565.74 L0 577.07 L107.72 577.07 L107.72 565.74 L0 565.74 L0 565.74 Z" class="st4"/>
			<text x="24.73" y="573.81" class="st2" v:langID="1044"><v:paragraph v:horizAlign="1"/><v:tabList/>AHB peripherals</text>		</g>
		<g id="shape44-180" v:mID="44" v:groupContext="shape" transform="translate(158.74,-304.948)">
			<title>Sheet.44</title>
			<path d="M0 577.07 L68.22 577.07" class="st7"/>
		</g>
		<g id="shape45-183" v:mID="45" v:groupContext="shape" transform="translate(-23.7467,-298.012) rotate(-18.4349)">
			<title>Sheet.45</title>
			<path d="M0 577.07 L71.71 577.07" class="st7"/>
		</g>
		<g id="shape46-186" v:mID="46" v:groupContext="shape" transform="translate(334.488,-304.948)">
			<title>Sheet.46</title>
			<desc>0X5000 0000</desc>
			<v:textBlock v:margins="rect(0,0,0,0)" v:tabSpace="42.5197" v:verticalAlign="2"/>
			<v:textRect cx="25.5118" cy="571.405" width="51.03" height="11.3386"/>
			<path d="M51.02 565.74 L0 565.74 L0 577.07 L51.02 577.07 L51.02 565.74" class="st5"/>
			<text x="4.25" y="574.67" class="st6" v:langID="1044"><v:paragraph v:horizAlign="1"/><v:tabList/>0<tspan class="st3"
						v:langID="1033">X5</tspan>000 0000</text>		</g>
		<g id="shape47-191" v:mID="47" v:groupContext="shape" transform="translate(334.488,-338.964)">
			<title>Sheet.47</title>
			<desc>0x5080 0000</desc>
			<v:textBlock v:margins="rect(0,0,0,0)" v:tabSpace="42.5197" v:verticalAlign="2"/>
			<v:textRect cx="25.5118" cy="571.405" width="51.03" height="11.3386"/>
			<path d="M51.02 565.74 L0 565.74 L0 577.07 L51.02 577.07 L51.02 565.74" class="st5"/>
			<text x="4.6" y="574.67" class="st6" v:langID="1044"><v:paragraph v:horizAlign="1"/><v:tabList/>0<tspan class="st3"
						v:langID="1033">x5</tspan>080 0000</text>		</g>
		<g id="shape52-196" v:mID="52" v:groupContext="shape" transform="translate(63.8697,-535.207) rotate(-9.46232)">
			<title>Sheet.52</title>
			<path d="M0 577.07 L68.97 577.07" class="st7"/>
		</g>
		<g id="shape53-199" v:mID="53" v:groupContext="shape" transform="translate(528.174,-352.612) rotate(39.8056)">
			<title>Sheet.53</title>
			<path d="M0 577.07 L88.56 577.07" class="st7"/>
		</g>
		<g id="shape54-202" v:mID="54" v:groupContext="shape" transform="translate(226.772,-441.011)">
			<title>Sheet.54</title>
			<desc>DWT</desc>
			<v:textBlock v:margins="rect(4,4,4,4)"/>
			<v:textRect cx="53.8583" cy="571.405" width="107.72" height="11.3386"/>
			<path d="M0 565.74 L0 577.07 L107.72 577.07 L107.72 565.74 L0 565.74 L0 565.74 Z" class="st1"/>
			<text x="44.75" y="573.81" class="st2" v:langID="1033"><v:paragraph v:horizAlign="1"/><v:tabList/>DWT</text>		</g>
		<g id="shape55-205" v:mID="55" v:groupContext="shape" transform="translate(334.488,-441.011)">
			<title>Sheet.55</title>
			<desc>0xE000 1000</desc>
			<v:textBlock v:margins="rect(0,0,0,0)" v:tabSpace="42.5197"/>
			<v:textRect cx="25.5118" cy="571.405" width="51.03" height="11.3386"/>
			<path d="M51.02 565.74 L0 565.74 L0 577.07 L51.02 577.07 L51.02 565.74" class="st5"/>
			<text x="4.67" y="573.81" class="st6" v:langID="1044"><v:paragraph v:horizAlign="1"/><v:tabList/>0<tspan class="st3"
						v:langID="1033">x</tspan>E00<tspan class="st3" v:langID="1033">0</tspan> <tspan class="st3" v:langID="1033">1</tspan>00<tspan
						class="st3" v:langID="1033">0</tspan></text>		</g>
		<g id="shape56-213" v:mID="56" v:groupContext="shape" transform="translate(226.772,-452.35)">
			<title>Sheet.56</title>
			<desc>BPU</desc>
			<v:textBlock v:margins="rect(4,4,4,4)"/>
			<v:textRect cx="53.8583" cy="571.405" width="107.72" height="11.3386"/>
			<path d="M0 565.74 L0 577.07 L107.72 577.07 L107.72 565.74 L0 565.74 L0 565.74 Z" class="st1"/>
			<text x="45.63" y="573.81" class="st2" v:langID="1033"><v:paragraph v:horizAlign="1"/><v:tabList/>BPU</text>		</g>
		<g id="shape57-216" v:mID="57" v:groupContext="shape" transform="translate(334.488,-452.35)">
			<title>Sheet.57</title>
			<desc>0xE000 2000</desc>
			<v:textBlock v:margins="rect(0,0,0,0)" v:tabSpace="42.5197"/>
			<v:textRect cx="25.5118" cy="571.405" width="51.03" height="11.3386"/>
			<path d="M51.02 565.74 L0 565.74 L0 577.07 L51.02 577.07 L51.02 565.74" class="st5"/>
			<text x="4.67" y="573.81" class="st6" v:langID="1044"><v:paragraph v:horizAlign="1"/><v:tabList/>0<tspan class="st3"
						v:langID="1033">x</tspan>E00<tspan class="st3" v:langID="1033">0</tspan> <tspan class="st3" v:langID="1033">2000</tspan></text>		</g>
		<g id="shape58-223" v:mID="58" v:groupContext="shape" transform="translate(226.772,-492.035)">
			<title>Sheet.58</title>
			<desc>ETM</desc>
			<v:textBlock v:margins="rect(4,4,4,4)"/>
			<v:textRect cx="53.8583" cy="571.405" width="107.72" height="11.3386"/>
			<path d="M0 565.74 L0 577.07 L107.72 577.07 L107.72 565.74 L0 565.74 L0 565.74 Z" class="st1"/>
			<text x="45.42" y="573.81" class="st2" v:langID="1033"><v:paragraph v:horizAlign="1"/><v:tabList/>ETM</text>		</g>
		<g id="shape59-226" v:mID="59" v:groupContext="shape" transform="translate(334.488,-492.035)">
			<title>Sheet.59</title>
			<desc>0xE004 1000</desc>
			<v:textBlock v:margins="rect(0,0,0,0)" v:tabSpace="42.5197"/>
			<v:textRect cx="25.5118" cy="571.405" width="51.03" height="11.3386"/>
			<path d="M51.02 565.74 L0 565.74 L0 577.07 L51.02 577.07 L51.02 565.74" class="st5"/>
			<text x="4.67" y="573.81" class="st6" v:langID="1044"><v:paragraph v:horizAlign="1"/><v:tabList/>0<tspan class="st3"
						v:langID="1033">x</tspan>E00<tspan class="st3" v:langID="1033">4</tspan> <tspan class="st3" v:langID="1033">1000</tspan></text>		</g>
		<g id="shape60-233" v:mID="60" v:groupContext="shape" transform="translate(226.772,-514.712)">
			<title>Sheet.60</title>
			<desc>Reserved (MTB)</desc>
			<v:textBlock v:margins="rect(4,4,4,4)"/>
			<v:textRect cx="53.8583" cy="571.405" width="107.72" height="11.3386"/>
			<path d="M0 565.74 L0 577.07 L107.72 577.07 L107.72 565.74 L0 565.74 L0 565.74 Z" class="st1"/>
			<text x="24.52" y="573.81" class="st2" v:langID="1033"><v:paragraph v:horizAlign="1"/><v:tabList/>Reserved (MTB)</text>		</g>
		<g id="shape61-236" v:mID="61" v:groupContext="shape" transform="translate(334.488,-514.712)">
			<title>Sheet.61</title>
			<desc>0xE004 3000</desc>
			<v:textBlock v:margins="rect(0,0,0,0)" v:tabSpace="42.5197"/>
			<v:textRect cx="25.5118" cy="571.405" width="51.03" height="11.3386"/>
			<path d="M51.02 565.74 L0 565.74 L0 577.07 L51.02 577.07 L51.02 565.74" class="st5"/>
			<text x="4.67" y="573.81" class="st6" v:langID="1044"><v:paragraph v:horizAlign="1"/><v:tabList/>0<tspan class="st3"
						v:langID="1033">x</tspan>E00<tspan class="st3" v:langID="1033">4 3000</tspan></text>		</g>
		<g id="shape62-242" v:mID="62" v:groupContext="shape" transform="translate(226.772,-503.373)">
			<title>Sheet.62</title>
			<desc>CTI</desc>
			<v:textBlock v:margins="rect(4,4,4,4)"/>
			<v:textRect cx="53.8583" cy="571.405" width="107.72" height="11.3386"/>
			<path d="M0 565.74 L0 577.07 L107.72 577.07 L107.72 565.74 L0 565.74 L0 565.74 Z" class="st1"/>
			<text x="47.42" y="573.81" class="st2" v:langID="1033"><v:paragraph v:horizAlign="1"/><v:tabList/>CTI</text>		</g>
		<g id="shape63-245" v:mID="63" v:groupContext="shape" transform="translate(334.488,-503.373)">
			<title>Sheet.63</title>
			<desc>0xE004 2000</desc>
			<v:textBlock v:margins="rect(0,0,0,0)" v:tabSpace="42.5197"/>
			<v:textRect cx="25.5118" cy="571.405" width="51.03" height="11.3386"/>
			<path d="M51.02 565.74 L0 565.74 L0 577.07 L51.02 577.07 L51.02 565.74" class="st5"/>
			<text x="4.67" y="573.81" class="st6" v:langID="1044"><v:paragraph v:horizAlign="1"/><v:tabList/>0<tspan class="st3"
						v:langID="1033">x</tspan>E00<tspan class="st3" v:langID="1033">4</tspan> <tspan class="st3" v:langID="1033">2000</tspan></text>		</g>
		<g id="shape64-252" v:mID="64" v:groupContext="shape" transform="translate(226.772,-429.673)">
			<title>Sheet.64</title>
			<desc>ITM</desc>
			<v:textBlock v:margins="rect(4,4,4,4)"/>
			<v:textRect cx="53.8583" cy="571.405" width="107.72" height="11.3386"/>
			<path d="M0 565.74 L0 577.07 L107.72 577.07 L107.72 565.74 L0 565.74 L0 565.74 Z" class="st1"/>
			<text x="46.97" y="573.81" class="st2" v:langID="1033"><v:paragraph v:horizAlign="1"/><v:tabList/>ITM</text>		</g>
		<g id="shape65-255" v:mID="65" v:groupContext="shape" transform="translate(334.488,-429.673)">
			<title>Sheet.65</title>
			<desc>0xE000 0000</desc>
			<v:textBlock v:margins="rect(0,0,0,0)" v:tabSpace="42.5197"/>
			<v:textRect cx="25.5118" cy="571.405" width="51.03" height="11.3386"/>
			<path d="M51.02 565.74 L0 565.74 L0 577.07 L51.02 577.07 L51.02 565.74" class="st5"/>
			<text x="4.67" y="573.81" class="st6" v:langID="1044"><v:paragraph v:horizAlign="1"/><v:tabList/>0<tspan class="st3"
						v:langID="1033">x</tspan>E00<tspan class="st3" v:langID="1033">0 0000</tspan></text>		</g>
		<g id="shape66-261" v:mID="66" v:groupContext="shape" transform="translate(6.79456E-14,-543.058)">
			<title>Sheet.66</title>
			<desc>0xFFFF FFFF</desc>
			<v:textBlock v:margins="rect(0,0,0,0)" v:tabSpace="42.5197"/>
			<v:textRect cx="25.5118" cy="571.405" width="51.03" height="11.3386"/>
			<path d="M51.02 565.74 L0 565.74 L0 577.07 L51.02 577.07 L51.02 565.74" class="st5"/>
			<text x="6.11" y="573.81" class="st6" v:langID="1044"><v:paragraph v:horizAlign="1"/><v:tabList/>0<tspan class="st3"
						v:langID="1033">xFFFF FFFF</tspan></text>		</g>
		<g id="shape67-266" v:mID="67" v:groupContext="shape" transform="translate(226.772,-21.4836)">
			<title>Sheet.67</title>
			<path d="M0 44.16 L0 577.07 L107.72 577.07 L107.72 44.16 L0 44.16 L0 44.16 Z" class="st8"/>
		</g>
		<g id="shape69-268" v:mID="69" v:groupContext="shape" transform="translate(334.488,-463.688)">
			<title>Sheet.69</title>
			<desc>0xE000 E000</desc>
			<v:textBlock v:margins="rect(0,0,0,0)" v:tabSpace="42.5197"/>
			<v:textRect cx="25.5118" cy="571.405" width="51.03" height="11.3386"/>
			<path d="M51.02 565.74 L0 565.74 L0 577.07 L51.02 577.07 L51.02 565.74" class="st5"/>
			<text x="4.74" y="573.81" class="st6" v:langID="1044"><v:paragraph v:horizAlign="1"/><v:tabList/>0<tspan class="st3"
						v:langID="1033">x</tspan>E00<tspan class="st3" v:langID="1033">0</tspan> <tspan class="st3" v:langID="1033">E</tspan>00<tspan
						class="st3" v:langID="1033">0</tspan></text>		</g>
		<g id="shape70-276" v:mID="70" v:groupContext="shape" transform="translate(334.488,-531.72)">
			<title>Sheet.70</title>
			<desc>0xE00F E000</desc>
			<v:textBlock v:margins="rect(0,0,0,0)" v:tabSpace="42.5197"/>
			<v:textRect cx="25.5118" cy="571.405" width="51.03" height="11.3386"/>
			<path d="M51.02 565.74 L0 565.74 L0 577.07 L51.02 577.07 L51.02 565.74" class="st5"/>
			<text x="4.93" y="573.81" class="st6" v:langID="1044"><v:paragraph v:horizAlign="1"/><v:tabList/>0<tspan class="st3"
						v:langID="1033">x</tspan>E00<tspan class="st3" v:langID="1033">F</tspan> E000</text>		</g>
		<g id="shape73-282" v:mID="73" v:groupContext="shape" transform="translate(334.488,-480.696)">
			<title>Sheet.73</title>
			<desc>0xE004 0000</desc>
			<v:textBlock v:margins="rect(0,0,0,0)" v:tabSpace="42.5197"/>
			<v:textRect cx="25.5118" cy="571.405" width="51.03" height="11.3386"/>
			<path d="M51.02 565.74 L0 565.74 L0 577.07 L51.02 577.07 L51.02 565.74" class="st5"/>
			<text x="4.67" y="573.81" class="st6" v:langID="1044"><v:paragraph v:horizAlign="1"/><v:tabList/>0<tspan class="st3"
						v:langID="1033">x</tspan>E00<tspan class="st3" v:langID="1033">4</tspan> 0<tspan class="st3"
						v:langID="1033">000</tspan></text>		</g>
	</g>
</svg>
